<?xml version="1.0" standalone="no"?>
<!DOCTYPE svg PUBLIC "-//W3C//DTD SVG 20010904//EN"
 "http://www.w3.org/TR/2001/REC-SVG-20010904/DTD/svg10.dtd">
<svg version="1.0" xmlns="http://www.w3.org/2000/svg"
 width="606.000000pt" height="606.000000pt" viewBox="0 0 606.000000 606.000000"
 preserveAspectRatio="xMidYMid meet">
<metadata>
Created by potrace 1.14, written by Peter Selinger 2001-2017
</metadata>
<g transform="translate(0.000000,606.000000) scale(0.100000,-0.100000)"
fill="#000000" stroke="none">
<path d="M2710 4833 c-61 -9 -207 -46 -230 -58 -14 -8 -50 -25 -80 -40 -84
-40 -131 -68 -141 -87 -6 -10 -16 -18 -23 -18 -7 0 -22 -10 -34 -22 -11 -13
-39 -41 -62 -63 -22 -22 -43 -48 -46 -57 -3 -10 -9 -18 -14 -18 -19 0 -100
-154 -135 -258 -14 -42 -30 -86 -35 -97 -13 -27 -41 -112 -46 -139 -2 -11 -8
-30 -12 -41 -20 -43 -32 -93 -32 -126 0 -19 -5 -40 -10 -45 -6 -6 -13 -35 -15
-65 -5 -53 -8 -82 -23 -209 -4 -36 -12 -71 -17 -79 -9 -15 -12 -55 -19 -197
-2 -44 -8 -102 -15 -130 -15 -64 -30 -164 -46 -293 -3 -30 -8 -58 -11 -62 -3
-5 -7 -23 -9 -41 -6 -52 -33 -208 -45 -263 -27 -123 -36 -198 -45 -406 -7
-147 6 -250 35 -279 11 -11 20 -26 20 -34 0 -15 62 -60 96 -70 17 -5 23 -17
28 -49 3 -23 8 -51 10 -62 2 -11 -3 -33 -11 -48 -13 -26 -13 -31 3 -48 9 -10
23 -19 31 -19 17 0 50 53 58 96 3 19 10 34 15 34 6 0 10 6 10 14 0 7 7 19 15
26 12 10 15 9 15 -7 0 -11 9 -28 20 -38 11 -10 32 -43 46 -73 27 -56 27 -79 3
-137 -7 -16 -13 -34 -14 -40 -4 -17 -64 -167 -84 -210 -22 -48 -41 -94 -41
-100 0 -3 89 -5 198 -5 l197 0 55 108 c30 59 59 110 65 114 5 4 23 -9 40 -30
16 -20 42 -47 58 -61 16 -15 34 -46 43 -78 l15 -53 514 0 c573 0 517 -7 530
70 6 35 29 69 40 58 3 -3 8 -23 11 -44 13 -93 -9 -84 200 -84 l186 0 -6 58
c-13 125 -18 247 -18 479 -1 132 -5 267 -10 300 -13 90 -47 185 -76 216 -36
38 -149 89 -247 112 -44 10 -90 25 -102 33 -16 10 -37 12 -75 7 -55 -7 -140
11 -201 42 -28 14 -28 16 -24 84 3 38 1 71 -4 75 -18 11 -8 41 19 53 36 17
179 112 221 148 99 83 175 162 188 193 8 19 21 42 28 50 7 8 23 43 36 78 19
49 28 62 45 62 72 0 154 83 231 235 43 85 52 122 54 220 2 96 -27 150 -87 161
-18 3 -35 12 -38 20 -3 8 -12 14 -20 14 -9 0 -13 7 -11 20 6 29 14 40 30 40
21 0 47 45 43 72 -2 16 -13 26 -35 33 -27 7 -32 13 -28 32 2 13 15 37 29 54
35 41 33 63 -9 105 -40 40 -40 42 -20 71 18 26 22 82 8 107 -5 10 -21 23 -34
30 -25 12 -28 34 -17 101 3 20 -2 41 -16 63 -17 26 -27 32 -51 30 -32 -3 -32
-3 -34 63 -2 53 -38 91 -91 94 -47 3 -59 11 -65 46 -2 13 -19 37 -36 52 -26
24 -36 28 -69 22 -36 -6 -39 -5 -55 29 -28 60 -93 88 -126 55 -10 -10 -21 -19
-23 -19 -12 0 -56 49 -56 62 0 33 -83 49 -123 24 -22 -14 -77 -11 -77 4 0 4
-12 10 -27 13 -16 3 -39 8 -53 12 -28 8 -192 14 -230 8z m-110 -2272 c41 -32
85 -63 97 -69 12 -7 28 -18 35 -24 8 -7 32 -23 53 -34 41 -23 57 -44 32 -44
-9 0 -25 -12 -36 -26 -16 -21 -18 -30 -9 -50 6 -13 15 -24 20 -24 5 0 7 -15 5
-32 -4 -37 -22 -49 -108 -72 -56 -14 -79 -8 -79 21 0 7 -7 30 -17 51 -9 20
-15 41 -14 46 1 6 -2 19 -8 30 -5 12 -21 57 -36 101 -15 44 -33 90 -41 102 -7
11 -15 32 -18 45 -3 12 -8 39 -12 58 l-7 34 34 -28 c19 -15 68 -53 109 -85z
m-443 -208 c-3 -10 -5 -4 -5 12 0 17 2 24 5 18 2 -7 2 -21 0 -30z m13 -169 c0
-71 -2 -154 -5 -184 -6 -59 -33 -145 -43 -135 -11 11 -11 128 -1 215 10 84 12
96 24 175 17 106 25 85 25 -71z m-474 -251 c-3 -16 -1 -55 5 -88 21 -119 22
-128 9 -120 -6 4 -9 9 -6 12 3 3 1 14 -5 25 -15 28 -21 64 -21 128 0 71 0 70
13 70 6 0 8 -11 5 -27z"/>
</g>
</svg>
