<svg width="48" height="46" viewBox="0 0 48 46" fill="none" xmlns="http://www.w3.org/2000/svg">
<path d="M20.9414 3.26961C17.3649 3.96863 14.612 5.41176 12.212 7.80196C8.8473 11.1843 7.08259 16.1451 7.71789 20.4971C8.35318 24.7814 10.2826 28.1637 13.5767 30.7794C18.0238 34.2971 23.8591 35.2892 29.4591 33.4853C35.412 31.5461 39.765 26.1118 40.3532 19.8431C40.612 16.9569 39.7885 13.4392 38.1885 10.8461C34.6591 5.07353 27.5767 1.96176 20.9414 3.26961ZM25.9061 10.5304C26.2826 10.8686 26.8002 11.8157 27.1061 12.6274L27.6473 14.0931L29.4355 14.2059C31.5061 14.3412 32.3061 14.7471 32.8473 15.9647C33.5297 17.5206 32.8944 18.6931 30.4238 20.5196L29.6708 21.0833L30.1179 22.3235C30.3767 23 30.5649 24.0147 30.5885 24.5559C30.5885 25.3902 30.4708 25.6608 29.6708 26.4049C28.2355 27.7804 27.0591 27.6 24.3297 25.6157C24.1414 25.4578 23.5767 25.6833 22.5649 26.3373C20.5885 27.6225 19.6002 27.6451 18.3297 26.4049C17.5297 25.6608 17.412 25.3902 17.412 24.5333C17.412 23.9696 17.6002 22.9775 17.8591 22.301L18.2826 21.0608L16.8002 19.8882C15.0355 18.4902 14.612 17.5657 15.1061 16.1225C15.5767 14.7696 16.612 14.2059 18.7061 14.2059H20.3767L20.8944 12.6725C21.3885 11.2294 22.1885 10.1696 23.0591 9.85392C23.8355 9.53823 25.2473 9.89902 25.9061 10.5304Z" fill="white"/>
<path d="M23.7644 14.048C23.7644 14.702 22.5408 16.6186 21.9761 16.8667C21.6467 17.0245 20.7526 17.1373 19.9997 17.1373C19.2232 17.1373 18.5879 17.2049 18.5879 17.2951C18.5879 17.4078 19.0349 17.7686 19.5526 18.1294C21.3408 19.3471 21.8114 20.7676 21.0585 22.7745C20.5879 24.0598 20.6114 24.0824 21.3644 23.4059C22.3055 22.549 22.8938 22.3235 24.1879 22.3235C25.1526 22.3235 25.482 22.4363 26.3055 23.1353C27.3644 23.9922 27.5055 23.902 26.9408 22.6167C26.1408 20.7902 26.7291 19.2118 28.7055 17.9265L29.7644 17.25L27.9997 17.1373C27.0349 17.0696 25.9997 16.8667 25.7173 16.6863C25.2232 16.3931 24.2349 14.5667 24.2349 14.0029C24.2349 13.8677 24.1408 13.7549 23.9997 13.7549C23.882 13.7549 23.7644 13.8902 23.7644 14.048Z" fill="white"/>
<path d="M9.17599 34.9961C9.31716 39.3029 9.34069 39.3931 11.0113 40.6559C12.376 41.6706 13.623 41.6931 15.8819 40.8137C16.5407 40.5431 16.8701 40.6333 19.9995 41.8284C23.6701 43.2265 24.5407 43.3167 26.376 42.5275C26.823 42.3471 28.1407 41.8284 29.3407 41.3775L31.4819 40.5657L32.5642 41.0167C34.6113 41.9186 36.7525 41.4 38.1172 39.6412C38.6819 38.9422 38.7054 38.7167 38.823 34.9961C38.8936 32.8765 38.8936 31.1176 38.8466 31.1176C38.7995 31.1176 38.1407 31.6814 37.3642 32.3578C32.4701 36.7098 26.023 38.3108 19.3172 36.8451C16.1878 36.1686 12.4701 34.2294 10.3525 32.1549C9.78775 31.5912 9.24658 31.1176 9.17599 31.1176C9.1054 31.1176 9.1054 32.8765 9.17599 34.9961Z" fill="white"/>
</svg>
